<?xml version="1.0" encoding="UTF-8"?>
<!DOCTYPE svg PUBLIC "-//W3C//DTD SVG 1.1//EN" "http://www.w3.org/Graphics/SVG/1.1/DTD/svg11.dtd">
<!-- Creator: CorelDRAW X7 -->
<svg xmlns="http://www.w3.org/2000/svg" xml:space="preserve" width="81.1106mm" height="29.1252mm" version="1.1" style="shape-rendering:geometricPrecision; text-rendering:geometricPrecision; image-rendering:optimizeQuality; fill-rule:evenodd; clip-rule:evenodd"
viewBox="0 0 8111 2913"
 xmlns:xlink="http://www.w3.org/1999/xlink">
 <defs>
  <style type="text/css">
   <![CDATA[
    .fil1 {fill:#00ADB5;fill-rule:nonzero}
    .fil2 {fill:#121C4D;fill-rule:nonzero}
    .fil0 {fill:#00ADB5;fill-rule:nonzero}
   ]]>
  </style>
 </defs>
 <g id="Layer_x0020_1">
  <metadata id="CorelCorpID_0Corel-Layer"/>
  <g id="_2099785276832">
   <path class="fil0" d="M3850 690c0,-13 5,-22 16,-25 11,-4 35,-6 74,-6 40,0 65,2 75,6 10,3 15,12 15,25l0 607c0,14 -5,22 -15,26 -10,4 -35,6 -75,6 -39,0 -63,-2 -74,-6 -11,-4 -16,-12 -16,-26l0 -607zm170 -282c10,5 15,16 15,34l0 92c0,18 -5,29 -15,34 -10,4 -37,6 -80,6 -43,0 -70,-2 -79,-6 -10,-5 -15,-16 -15,-34l0 -92c0,-18 5,-29 15,-34 9,-4 36,-6 79,-6 43,0 70,2 80,6z"/>
   <path class="fil0" d="M4379 744c16,-26 41,-48 76,-67 34,-19 76,-28 123,-28 153,0 230,79 230,237l0 411c0,14 -6,22 -16,26 -10,4 -35,6 -75,6 -38,0 -63,-2 -74,-6 -11,-4 -16,-12 -16,-26l0 -383c0,-38 -9,-66 -26,-84 -17,-18 -44,-26 -81,-26 -43,0 -77,12 -102,37 -24,26 -37,60 -37,103l0 353c0,14 -5,22 -15,26 -11,4 -36,6 -75,6 -39,0 -64,-2 -74,-6 -11,-4 -17,-12 -17,-26l0 -607c0,-13 6,-22 17,-25 10,-4 35,-6 74,-6 38,0 61,2 70,6 9,3 14,11 15,24l3 55z"/>
   <path class="fil0" d="M2329 1319c-30,16 -59,32 -88,48 9,-96 136,-188 230,-165 41,9 66,41 66,85 0,120 0,241 0,361 0,38 4,41 39,24 22,-12 42,-27 62,-40 -21,100 -111,174 -209,172 -59,-1 -91,-33 -92,-90 0,-118 0,-235 0,-352l0 -36c-3,-2 -5,-5 -8,-7z"/>
   <path class="fil0" d="M2548 1012c0,67 -58,126 -124,126 -75,0 -133,-55 -133,-127 -1,-69 57,-124 130,-124 71,0 128,56 127,125z"/>
   <path class="fil0" d="M1206 2209l-448 0c-30,0 -54,-24 -54,-54 0,-30 24,-54 54,-54l448 0c30,0 54,24 54,54 0,30 -24,54 -54,54z"/>
   <path class="fil0" d="M1010 1654l-448 0c-30,0 -54,-24 -54,-54 0,-30 24,-54 54,-54l448 0c30,0 54,24 54,54 0,30 -24,54 -54,54z"/>
   <path class="fil0" d="M1010 1377l-448 0c-30,0 -54,-25 -54,-55 0,-30 24,-54 54,-54l448 0c30,0 54,24 54,54 0,30 -24,55 -54,55z"/>
   <path class="fil0" d="M1206 1099l-180 0c-30,0 -54,-24 -54,-54 0,-30 24,-54 54,-54l180 0c30,0 54,24 54,54 0,30 -24,54 -54,54z"/>
   <path class="fil0" d="M1193 1932l-180 0c-30,0 -54,-25 -54,-55 0,-30 24,-54 54,-54l180 0c30,0 54,24 54,54 0,30 -24,55 -54,55z"/>
   <path class="fil1" d="M1206 822l-448 0c-30,0 -54,-25 -54,-55 0,-30 24,-54 54,-54l448 0c30,0 54,24 54,54 0,30 -24,55 -54,55z"/>
   <path class="fil0" d="M2829 1061l0 0c-15,-14 -15,-38 0,-53l41 -41c14,-14 38,-14 53,0 14,15 14,39 0,53l-41 41c-15,15 -39,15 -53,0z"/>
   <path class="fil0" d="M2992 1454l0 0c0,-21 17,-38 37,-38l59 0c20,0 37,17 37,38 0,21 -17,38 -37,38l-59 0c-20,0 -37,-17 -37,-38z"/>
   <path class="fil0" d="M2827 1848l0 0c14,-15 38,-16 53,-2l43 40c15,14 16,38 1,53 -14,15 -37,16 -53,2l-42 -40c-15,-14 -16,-37 -2,-53z"/>
   <path class="fil0" d="M2048 1061l0 0c14,-14 14,-38 0,-53l-41 -41c-15,-14 -39,-14 -54,0 -14,15 -14,39 0,53l42 41c14,15 38,15 53,0z"/>
   <path class="fil0" d="M1884 1456l0 0c0,-20 -17,-37 -37,-37l-58 0c-21,0 -38,17 -38,37 0,21 17,38 38,38l58 0c20,0 37,-17 37,-38z"/>
   <path class="fil0" d="M2049 1848l0 0c-14,-15 -38,-16 -53,-2l-42 40c-15,14 -16,38 -2,53 14,15 38,16 53,2l42 -40c15,-14 16,-37 2,-53z"/>
   <path class="fil0" d="M2432 2011l0 0c20,-1 38,16 39,36l2 58c0,21 -16,38 -36,39 -21,1 -39,-15 -39,-36l-2 -58c-1,-21 15,-38 36,-39z"/>
   <path class="fil2" d="M5193 813l0 296c0,26 5,44 14,55 9,11 24,16 46,16 15,0 31,-2 46,-7 16,-5 25,-8 28,-8 15,0 29,19 42,57 8,24 12,41 12,51 0,9 -4,17 -11,24 -26,25 -75,37 -147,37 -78,0 -132,-17 -162,-51 -31,-35 -46,-91 -46,-169l0 -301 -78 0c-11,0 -17,-4 -20,-12 -3,-8 -4,-28 -4,-61 0,-32 1,-52 4,-60 3,-9 9,-13 20,-14l84 -4 0 -150c0,-12 5,-20 15,-24 10,-4 34,-5 72,-5 37,0 61,1 71,5 10,4 14,12 14,24l0 150 156 0c10,0 17,5 20,14 3,9 4,29 4,62 0,32 -1,53 -4,62 -3,9 -10,13 -20,13l-156 0z"/>
   <path class="fil2" d="M5515 690c0,-13 5,-22 16,-25 11,-4 35,-6 74,-6 40,0 64,2 75,6 10,3 15,12 15,25l0 607c0,14 -5,22 -15,26 -11,4 -35,6 -75,6 -39,0 -63,-2 -74,-6 -11,-4 -16,-12 -16,-26l0 -607zm170 -282c9,5 14,16 14,34l0 92c0,18 -5,29 -14,34 -10,4 -37,6 -80,6 -43,0 -70,-2 -80,-6 -10,-5 -14,-16 -14,-34l0 -92c0,-18 4,-29 14,-34 10,-4 37,-6 80,-6 43,0 70,2 80,6z"/>
   <path class="fil2" d="M6455 1297c0,14 -5,22 -16,26 -10,4 -35,6 -74,6 -39,0 -64,-2 -75,-6 -10,-4 -16,-12 -16,-26l0 -396c0,-34 -8,-59 -24,-74 -16,-16 -42,-23 -76,-23 -40,0 -72,11 -94,34 -23,23 -34,54 -34,93l0 366c0,14 -5,22 -15,26 -11,4 -36,6 -75,6 -39,0 -64,-2 -74,-6 -11,-4 -17,-12 -17,-26l0 -607c0,-13 6,-22 17,-25 10,-4 35,-6 74,-6 38,0 61,2 70,6 9,3 14,11 15,24l2 53c37,-62 100,-93 189,-93 98,0 164,33 197,99 51,-66 121,-99 212,-99 74,0 129,19 167,57 37,38 56,94 56,167l0 424c0,14 -5,22 -16,26 -10,4 -35,6 -75,6 -38,0 -63,-2 -74,-6 -11,-4 -16,-12 -16,-26l0 -396c0,-34 -8,-59 -24,-74 -17,-16 -42,-23 -76,-23 -40,0 -72,11 -94,34 -23,23 -34,54 -34,93l0 366z"/>
   <path class="fil2" d="M7225 821c-20,23 -33,59 -37,108l242 0 0 -19c0,-82 -36,-122 -110,-122 -43,0 -74,11 -95,33zm-39 219c4,56 16,96 37,122 21,26 55,38 101,38 62,0 94,-20 96,-60 0,-14 5,-22 14,-26 9,-4 32,-5 69,-5 39,0 63,2 74,6 10,5 15,16 15,33 -1,56 -24,102 -71,138 -46,36 -112,53 -197,53 -111,0 -191,-28 -242,-84 -50,-56 -75,-143 -75,-261 0,-116 25,-203 76,-260 51,-57 128,-85 233,-85 99,0 171,26 218,80 46,53 69,126 69,218l0 35c0,23 -2,39 -5,46 -4,8 -12,12 -26,12l-386 0z"/>
   <path class="fil2" d="M3879 1781c0,-11 13,-16 40,-16 25,0 37,5 37,16l0 622c0,7 -2,11 -6,13 -5,2 -15,3 -31,3 -17,0 -27,-1 -32,-3 -5,-2 -8,-6 -8,-13l0 -622zm74 -262c4,3 6,9 6,19l0 93c0,10 -2,16 -7,19 -4,3 -15,4 -33,4 -19,0 -31,-1 -36,-4 -4,-3 -6,-9 -6,-19l0 -93c0,-10 2,-16 6,-19 5,-3 17,-4 36,-4 18,0 30,1 34,4z"/>
   <path class="fil2" d="M4261 1882c16,-34 44,-64 82,-88 39,-25 88,-38 146,-38 70,0 125,19 164,56 39,37 59,93 59,168l0 423c0,7 -2,11 -7,13 -4,2 -15,3 -31,3 -16,0 -27,-1 -31,-3 -5,-2 -7,-6 -7,-13l0 -416c0,-56 -13,-98 -40,-123 -26,-26 -66,-39 -119,-39 -64,0 -115,19 -154,56 -40,38 -59,84 -59,139l0 383c0,7 -3,11 -8,13 -4,2 -15,3 -30,3 -16,0 -26,-1 -31,-3 -4,-2 -7,-6 -7,-13l0 -622c0,-7 3,-12 7,-14 5,-2 14,-2 28,-2 16,0 26,1 30,3 5,2 7,6 7,13l1 101z"/>
   <path class="fil2" d="M5052 1832l0 571c0,7 -2,11 -7,13 -4,2 -14,3 -30,3 -16,0 -26,-1 -31,-3 -4,-2 -6,-6 -6,-13l0 -571 -102 0c-6,0 -10,-2 -11,-5 -1,-4 -2,-13 -2,-26 0,-13 1,-22 2,-26 1,-4 5,-6 11,-6l102 -2 0 -87c0,-71 13,-123 41,-155 27,-32 72,-48 135,-48 45,0 82,7 111,20 9,4 9,16 1,36 -3,10 -7,17 -10,20 -4,4 -8,4 -13,2 -26,-8 -53,-12 -81,-12 -41,0 -70,11 -86,33 -16,21 -24,57 -24,108l0 83 170 0c8,0 12,11 12,33 0,21 -4,32 -12,32l-170 0z"/>
   <path class="fil2" d="M5772 2299c29,-42 43,-111 43,-207 0,-95 -14,-164 -43,-206 -30,-42 -82,-63 -156,-63 -75,0 -127,21 -156,63 -29,42 -44,111 -44,206 0,96 15,165 44,207 29,42 81,63 156,63 74,0 126,-21 156,-63zm57 -461c42,55 63,139 63,254 0,116 -21,200 -63,255 -42,54 -113,81 -213,81 -100,0 -171,-27 -214,-81 -43,-54 -64,-139 -64,-255 0,-115 21,-199 64,-254 43,-54 114,-82 214,-82 100,0 171,28 213,82z"/>
   <path class="fil2" d="M2439 297c-157,0 -307,31 -444,88 -2,0 -4,1 -6,1 -1,0 -3,0 -5,0 -267,-1 -533,-1 -800,-2 -28,0 -51,23 -51,51l0 7c0,28 23,51 51,51l596 0c5,0 7,4 2,8 -23,15 -57,40 -96,74 -29,25 -63,56 -98,94 -9,22 -7,46 7,62 18,23 56,28 85,8 72,-75 224,-213 459,-284 95,-28 196,-44 300,-44 578,0 1045,468 1045,1045 0,577 -467,1045 -1045,1045 -577,0 -1044,-468 -1044,-1045 0,-210 62,-406 169,-570 15,-25 11,-56 -9,-74 -22,-21 -60,-20 -82,4 -46,69 -104,171 -144,305 -32,106 -49,219 -49,335 0,120 18,235 52,344 15,49 123,382 441,605 6,5 -5,11 -5,11l-592 0c-3,0 -21,0 -36,15 -9,9 -15,22 -15,36l0 7c0,28 23,50 51,50 267,0 533,0 800,0 1,0 3,0 5,0 3,1 5,1 5,2 33,13 81,31 140,47 0,0 154,43 313,43 641,0 1160,-519 1160,-1160 0,-640 -519,-1159 -1160,-1159z"/>
   <path class="fil2" d="M2438 2254c-437,0 -792,-355 -792,-793 0,-437 355,-792 792,-792 411,0 748,313 788,713 6,23 25,40 47,42 27,3 52,-15 60,-42 -50,-465 -442,-819 -895,-819 -496,0 -898,402 -898,898 0,497 402,899 898,899 460,0 839,-346 892,-792 -5,-23 -23,-41 -44,-44 -27,-5 -56,14 -63,44 -64,396 -403,686 -785,686z"/>
  </g>
 </g>
</svg>
