<?xml version="1.0" encoding="UTF-8"?>
<!DOCTYPE svg PUBLIC "-//W3C//DTD SVG 1.1//EN" "http://www.w3.org/Graphics/SVG/1.1/DTD/svg11.dtd">
<!-- Creator: CorelDRAW X7 -->
<svg xmlns="http://www.w3.org/2000/svg" xml:space="preserve" width="40.4681mm" height="13.229mm" version="1.1" style="shape-rendering:geometricPrecision; text-rendering:geometricPrecision; image-rendering:optimizeQuality; fill-rule:evenodd; clip-rule:evenodd"
viewBox="0 0 6077 1987"
 xmlns:xlink="http://www.w3.org/1999/xlink">
 <defs>
  <style type="text/css">
   <![CDATA[
    .str0 {stroke:#00ADB5;stroke-width:11.4425}
    .fil5 {fill:#FEFEFE}
    .fil3 {fill:#121C4D}
    .fil4 {fill:#00ADB5}
    .fil1 {fill:#00ADB5;fill-rule:nonzero}
    .fil2 {fill:#121C4D;fill-rule:nonzero}
    .fil0 {fill:#00ADB5;fill-rule:nonzero}
   ]]>
  </style>
 </defs>
 <g id="Layer_x0020_1">
  <metadata id="CorelCorpID_0Corel-Layer"/>
  <path class="fil0" d="M2862 337c0,-11 5,-19 14,-22 9,-3 30,-4 64,-4 33,0 55,1 64,4 9,3 13,11 13,22l0 520c0,12 -4,19 -13,22 -9,3 -31,5 -64,5 -34,0 -55,-2 -64,-5 -9,-3 -14,-10 -14,-22l0 -520zm146 -241c8,4 12,13 12,29l0 78c0,16 -4,25 -12,29 -9,4 -31,6 -68,6 -37,0 -60,-2 -69,-6 -8,-4 -12,-13 -12,-29l0 -78c0,-16 4,-25 12,-29 9,-4 32,-6 69,-6 37,0 59,2 68,6z"/>
  <path class="fil0" d="M3315 384c14,-23 36,-42 65,-58 30,-16 65,-25 106,-25 131,0 197,68 197,204l0 352c0,12 -5,19 -14,22 -9,3 -30,5 -64,5 -33,0 -54,-2 -63,-5 -10,-3 -14,-10 -14,-22l0 -328c0,-33 -8,-57 -22,-72 -15,-15 -38,-23 -70,-23 -37,0 -66,11 -87,33 -21,21 -32,51 -32,88l0 302c0,12 -4,19 -13,22 -9,3 -30,5 -64,5 -33,0 -54,-2 -64,-5 -9,-3 -13,-10 -13,-22l0 -520c0,-11 4,-19 13,-22 10,-3 31,-4 64,-4 32,0 52,1 60,4 8,3 12,10 13,21l2 48z"/>
  <path class="fil0" d="M598 1638l-384 0c-25,0 -46,-21 -46,-46 0,-26 21,-47 46,-47l384 0c25,0 46,21 46,47 0,25 -21,46 -46,46z"/>
  <path class="fil0" d="M430 1163l-383 0c-26,0 -47,-21 -47,-47 0,-25 21,-46 47,-46l383 0c25,0 46,21 46,46 0,26 -21,47 -46,47z"/>
  <path class="fil0" d="M430 925l-383 0c-26,0 -47,-21 -47,-46 0,-26 21,-47 47,-47l383 0c25,0 46,21 46,47 0,25 -21,46 -46,46z"/>
  <path class="fil0" d="M598 687l-154 0c-26,0 -47,-20 -47,-46 0,-26 21,-47 47,-47l154 0c25,0 46,21 46,47 0,26 -21,46 -46,46z"/>
  <path class="fil0" d="M586 1400l-153 0c-26,0 -47,-20 -47,-46 0,-26 21,-47 47,-47l153 0c26,0 47,21 47,47 0,26 -21,46 -47,46z"/>
  <path class="fil1" d="M598 450l-384 0c-25,0 -46,-21 -46,-47 0,-25 21,-46 46,-46l384 0c25,0 46,21 46,46 0,26 -21,47 -46,47z"/>
  <path class="fil2" d="M4013 442l0 253c0,23 4,39 12,48 7,9 20,14 39,14 13,0 26,-2 40,-7 13,-4 21,-6 23,-6 14,0 25,16 36,49 7,20 11,35 11,43 0,8 -3,15 -10,21 -22,21 -64,31 -126,31 -67,0 -113,-14 -139,-43 -26,-30 -38,-78 -38,-145l0 -258 -67 0c-10,0 -15,-3 -18,-10 -2,-7 -3,-24 -3,-52 0,-28 1,-45 3,-52 3,-7 8,-11 18,-11l71 -4 0 -128c0,-11 4,-18 13,-21 8,-3 29,-5 62,-5 32,0 52,2 60,5 9,3 13,10 13,21l0 128 133 0c9,0 15,4 17,12 3,7 4,25 4,53 0,27 -1,45 -4,53 -2,8 -8,11 -17,11l-133 0z"/>
  <path class="fil2" d="M4288 337c0,-11 5,-19 14,-22 9,-3 30,-4 64,-4 33,0 55,1 64,4 8,3 13,11 13,22l0 520c0,12 -5,19 -13,22 -9,3 -31,5 -64,5 -34,0 -55,-2 -64,-5 -9,-3 -14,-10 -14,-22l0 -520zm146 -241c8,4 12,13 12,29l0 78c0,16 -4,25 -12,29 -9,4 -32,6 -68,6 -37,0 -60,-2 -69,-6 -8,-4 -12,-13 -12,-29l0 -78c0,-16 4,-25 12,-29 9,-4 32,-6 69,-6 36,0 59,2 68,6z"/>
  <path class="fil2" d="M5093 857c0,12 -4,19 -13,22 -9,3 -30,5 -64,5 -33,0 -54,-2 -63,-5 -10,-3 -14,-10 -14,-22l0 -339c0,-30 -7,-51 -21,-64 -14,-13 -36,-20 -65,-20 -35,0 -61,10 -81,30 -19,19 -29,46 -29,79l0 314c0,12 -4,19 -13,22 -9,3 -30,5 -64,5 -33,0 -54,-2 -64,-5 -9,-3 -13,-10 -13,-22l0 -520c0,-11 4,-19 13,-22 10,-3 31,-4 64,-4 32,0 52,1 60,4 8,3 12,10 13,21l2 45c32,-53 86,-80 162,-80 84,0 140,29 169,86 43,-57 103,-86 181,-86 63,0 111,17 143,50 32,32 48,80 48,142l0 364c0,12 -5,19 -14,22 -9,3 -30,5 -64,5 -33,0 -54,-2 -63,-5 -10,-3 -14,-10 -14,-22l0 -339c0,-30 -7,-51 -21,-64 -14,-13 -35,-20 -65,-20 -34,0 -61,10 -81,30 -19,19 -29,46 -29,79l0 314z"/>
  <path class="fil2" d="M5753 449c-17,20 -28,50 -32,93l208 0 0 -16c0,-70 -32,-106 -95,-106 -36,0 -63,10 -81,29zm-33 188c3,47 13,82 32,104 18,22 46,33 86,33 53,0 80,-17 82,-52 1,-11 5,-19 12,-22 8,-3 28,-5 59,-5 33,0 54,2 63,6 9,4 14,13 14,28 -1,49 -21,88 -61,118 -40,31 -96,46 -169,46 -95,0 -164,-24 -207,-72 -43,-48 -65,-123 -65,-224 0,-99 22,-173 65,-222 44,-49 110,-74 200,-74 84,0 147,23 186,69 40,46 60,108 60,187l0 30c0,20 -2,33 -5,40 -3,6 -10,10 -22,10l-330 0z"/>
  <path class="fil2" d="M1654 0c-135,0 -263,27 -381,76 -1,0 -3,0 -4,0 -2,1 -3,1 -5,1 -228,-1 -456,-1 -685,-2 -24,0 -43,19 -43,43l0 6c0,24 19,44 43,44l511 0c4,0 6,4 1,7 -19,13 -49,35 -82,64 -25,21 -54,48 -84,80 -8,19 -6,39 6,53 16,20 48,24 73,7 61,-64 191,-183 393,-243 82,-25 168,-38 257,-38 495,0 895,401 895,895 0,495 -400,895 -895,895 -494,0 -895,-400 -895,-895 0,-180 54,-348 146,-489 13,-21 9,-48 -8,-63 -19,-17 -51,-17 -71,4 -39,59 -88,147 -123,261 -27,91 -42,187 -42,287 0,103 16,202 44,295 13,42 106,327 378,518 6,4 -4,9 -4,9l-507 0c-3,0 -18,0 -31,13 -7,8 -12,19 -12,31l0 6c0,24 19,43 43,43 229,0 457,0 685,0 1,0 3,0 4,0 3,0 5,1 5,1 28,12 69,27 119,41 0,0 133,37 269,37 549,0 994,-445 994,-994 0,-548 -445,-993 -994,-993z"/>
  <path class="fil2" d="M1653 1676c-375,0 -678,-304 -678,-678 0,-375 303,-679 678,-679 352,0 641,268 675,610 5,20 22,35 41,37 22,2 44,-13 50,-37 -42,-398 -378,-701 -766,-701 -425,0 -769,345 -769,770 0,425 344,769 769,769 394,0 719,-296 764,-678 -4,-20 -19,-35 -37,-38 -23,-4 -48,12 -55,38 -55,339 -344,587 -672,587z"/>
  <path class="fil3" d="M3346 1276c0,4 0,8 -2,12 -1,4 -2,8 -3,12 -15,43 -30,85 -48,128 -18,43 -37,86 -59,128 -21,43 -45,85 -71,126 -25,41 -53,80 -84,118 -2,5 -5,8 -9,10 -3,2 -7,4 -12,6 -5,1 -10,2 -16,2 -6,1 -14,1 -22,1 -12,0 -21,-1 -28,-1 -7,-1 -13,-2 -17,-4 -4,-1 -6,-4 -8,-6 -2,-3 -3,-6 -3,-10l-76 -493c-1,-4 -1,-8 -1,-11 0,-3 0,-6 0,-9 0,-5 0,-9 2,-12 1,-2 4,-4 7,-6 4,-1 8,-3 14,-3 6,-1 14,-1 24,-1 10,0 18,0 24,1 6,0 11,1 14,3 4,1 6,3 7,5 1,3 2,6 2,10l61 428 0 7 3 -3c22,-35 42,-68 61,-100 19,-32 36,-65 52,-100 16,-34 31,-70 45,-108 15,-38 29,-79 44,-124 1,-4 3,-7 5,-10 2,-2 5,-4 9,-5 4,-2 9,-3 16,-3 6,-1 15,-1 24,-1 10,0 17,0 23,1 5,0 10,1 13,2 4,1 6,3 7,4 2,2 2,4 2,6zm268 -170c-2,11 -4,20 -8,28 -3,7 -7,13 -12,17 -6,5 -12,8 -20,10 -8,2 -18,3 -30,3 -11,0 -20,-1 -27,-3 -7,-2 -13,-5 -16,-10 -3,-4 -5,-10 -6,-17 0,-8 1,-17 3,-28 2,-10 5,-19 8,-27 4,-7 8,-13 13,-18 5,-4 12,-8 20,-9 8,-2 18,-3 29,-3 11,0 20,1 27,3 7,1 12,5 16,9 4,5 6,11 6,18 1,8 0,17 -3,27zm-147 695c-1,3 -2,6 -4,8 -2,2 -5,4 -9,5 -4,2 -9,3 -15,4 -6,0 -14,1 -23,1 -10,0 -17,-1 -23,-1 -6,-1 -10,-2 -14,-4 -3,-1 -5,-3 -6,-5 -1,-2 -1,-5 0,-8l101 -520c1,-3 2,-5 4,-8 2,-2 4,-4 8,-5 4,-2 9,-3 15,-4 7,-1 15,-1 24,-1 9,0 17,0 23,1 5,1 10,2 13,4 3,1 5,3 6,5 1,3 2,5 1,8l-101 520zm561 -492c0,4 -1,9 -2,16 -1,6 -3,13 -5,19 -2,6 -4,11 -7,16 -2,4 -6,6 -9,6 -4,0 -10,-2 -16,-6 -6,-3 -14,-7 -23,-12 -9,-5 -20,-9 -33,-13 -13,-4 -28,-6 -45,-6 -17,0 -32,3 -45,7 -13,5 -24,12 -32,20 -9,8 -16,18 -20,28 -5,10 -7,22 -7,33 0,16 5,28 15,38 10,11 22,20 38,28 15,8 31,16 49,24 17,8 33,17 48,29 15,11 28,25 38,41 10,16 15,36 15,60 0,27 -5,52 -16,75 -10,24 -25,44 -44,60 -20,17 -43,30 -71,40 -27,9 -58,14 -92,14 -18,0 -35,-2 -51,-4 -15,-3 -30,-6 -42,-11 -13,-4 -24,-9 -33,-14 -9,-5 -16,-10 -21,-15 -3,-3 -6,-6 -7,-9 -1,-4 -2,-8 -2,-12 0,-3 0,-7 0,-11 1,-4 2,-9 3,-13 1,-5 2,-9 3,-13 2,-5 4,-9 5,-12 2,-3 4,-6 6,-8 2,-3 5,-3 7,-3 5,0 10,2 17,7 6,6 15,11 25,17 11,6 24,12 39,17 16,6 35,8 58,8 21,0 39,-2 53,-8 15,-5 28,-12 37,-21 10,-8 17,-19 22,-30 5,-12 7,-24 7,-37 0,-16 -5,-29 -15,-39 -10,-10 -22,-20 -37,-28 -15,-8 -31,-16 -49,-24 -17,-9 -33,-18 -48,-29 -15,-11 -28,-24 -38,-40 -10,-16 -15,-37 -15,-61 0,-26 5,-49 15,-71 10,-22 24,-41 42,-57 18,-16 40,-28 65,-37 26,-9 54,-13 85,-13 14,0 28,1 42,3 13,3 26,5 37,9 11,4 21,7 30,12 8,4 14,8 18,12 4,4 6,10 6,18zm308 -203c-2,11 -5,20 -8,28 -3,7 -8,13 -13,17 -5,5 -12,8 -20,10 -8,2 -18,3 -29,3 -11,0 -20,-1 -27,-3 -8,-2 -13,-5 -16,-10 -4,-4 -6,-10 -6,-17 -1,-8 0,-17 2,-28 2,-10 5,-19 9,-27 3,-7 7,-13 13,-18 5,-4 11,-8 19,-9 8,-2 18,-3 29,-3 11,0 21,1 28,3 7,1 12,5 16,9 3,5 5,11 6,18 0,8 -1,17 -3,27zm-148 695c-1,3 -2,6 -4,8 -2,2 -5,4 -8,5 -4,2 -9,3 -16,4 -6,0 -14,1 -23,1 -9,0 -17,-1 -23,-1 -5,-1 -10,-2 -13,-4 -3,-1 -6,-3 -6,-5 -1,-2 -1,-5 -1,-8l102 -520c0,-3 1,-5 3,-8 2,-2 5,-4 9,-5 4,-2 9,-3 15,-4 6,-1 14,-1 24,-1 9,0 16,0 22,1 6,1 11,2 14,4 3,1 5,3 6,5 1,3 1,5 1,8l-102 520zm540 -514c0,4 0,8 0,12 -1,4 -2,8 -3,12 -1,4 -2,9 -4,13 -2,4 -4,8 -6,11 -2,3 -5,6 -7,8 -3,2 -6,3 -10,3l-131 0 -57 289c-1,8 -3,17 -4,27 -1,10 -2,18 -2,25 0,19 5,34 13,42 8,10 21,14 40,14 10,0 19,-1 26,-2 8,-2 14,-4 20,-6 5,-2 10,-4 14,-6 4,-1 8,-2 11,-2 3,0 5,1 7,3 1,2 2,6 2,12 0,5 0,10 -1,16 -1,6 -2,12 -4,18 -1,6 -3,11 -5,16 -3,4 -5,8 -8,11 -3,2 -7,5 -13,8 -6,2 -13,5 -21,7 -8,2 -17,4 -26,5 -8,1 -17,2 -26,2 -21,0 -40,-3 -55,-7 -16,-5 -29,-12 -40,-22 -10,-10 -18,-22 -23,-37 -5,-15 -8,-32 -8,-53 0,-5 0,-10 1,-15 0,-6 1,-12 2,-18 1,-6 2,-12 3,-18 0,-7 1,-12 3,-18l57 -291 -71 0c-4,0 -8,-1 -10,-4 -2,-3 -3,-7 -3,-15 0,-5 0,-11 2,-18 1,-8 2,-14 5,-20 2,-7 5,-12 9,-16 3,-4 7,-6 12,-6l72 0 25 -124c0,-3 1,-5 3,-7 2,-3 5,-5 9,-6 4,-2 9,-3 15,-4 6,-1 14,-1 23,-1 9,0 17,0 23,1 6,1 10,2 13,4 4,1 6,3 7,6 0,2 1,4 0,7l-24 124 131 0c6,0 10,2 11,6 2,4 3,9 3,14zm529 166c0,28 -2,57 -8,87 -5,30 -13,58 -24,86 -10,27 -24,53 -41,77 -17,25 -36,46 -59,64 -22,18 -48,32 -77,43 -28,11 -60,16 -96,16 -36,0 -67,-4 -93,-13 -26,-9 -48,-22 -65,-39 -16,-17 -28,-38 -36,-62 -8,-25 -13,-53 -13,-84 0,-29 3,-58 8,-87 5,-30 13,-59 24,-86 11,-27 25,-53 42,-77 16,-25 36,-46 58,-64 23,-18 49,-33 77,-43 29,-11 61,-16 96,-16 37,0 68,4 94,13 26,9 47,22 64,39 17,17 30,38 38,63 8,24 11,52 11,83zm-99 5c0,-19 -2,-36 -6,-52 -4,-15 -10,-28 -20,-39 -9,-10 -21,-19 -36,-24 -15,-6 -33,-9 -54,-9 -23,0 -44,4 -62,12 -19,9 -36,20 -50,34 -15,14 -28,30 -39,49 -11,19 -20,39 -27,61 -7,21 -12,43 -16,66 -3,22 -5,44 -5,66 0,19 3,36 7,52 4,15 11,28 20,39 9,11 22,19 36,25 15,6 33,9 55,9 23,0 44,-5 62,-13 19,-8 35,-19 50,-34 14,-14 27,-30 38,-49 11,-19 20,-39 27,-61 7,-22 12,-44 15,-66 4,-22 5,-44 5,-66zm571 -177c0,2 0,5 -1,9 -1,5 -1,10 -2,15 -1,6 -2,12 -3,18 -2,6 -4,12 -6,17 -2,5 -5,10 -7,13 -3,4 -5,5 -8,5 -4,0 -7,0 -10,-2 -4,-1 -8,-3 -12,-4 -5,-2 -10,-4 -15,-5 -6,-2 -13,-2 -20,-2 -13,0 -28,5 -45,17 -17,11 -33,27 -50,47 -16,20 -31,44 -45,71 -13,27 -23,57 -29,89l-45 232c-1,3 -2,6 -4,8 -2,2 -5,4 -9,5 -3,2 -9,3 -15,4 -6,0 -14,1 -23,1 -9,0 -17,-1 -23,-1 -6,-1 -10,-2 -14,-4 -3,-1 -5,-3 -6,-5 -1,-2 -1,-5 0,-8l101 -521c1,-2 2,-5 4,-7 2,-2 5,-4 8,-6 4,-1 9,-3 14,-3 6,-1 13,-1 20,-1 8,0 15,0 20,1 5,0 9,2 12,3 3,2 4,4 5,6 1,2 1,5 1,7l-19 95c9,-16 19,-31 31,-46 12,-14 25,-27 39,-38 14,-11 29,-20 44,-26 16,-7 31,-10 46,-10 6,0 12,0 19,1 7,1 13,2 18,4 6,1 11,2 15,4 5,2 8,4 10,6 3,3 4,6 4,11z"/>
  <g id="_2309459311792">
   <path class="fil4" d="M1669 812c0,10 -8,18 -17,18 -10,0 -18,-8 -18,-18 0,-10 8,-18 18,-18 9,0 17,8 17,18zm0 0z"/>
   <path class="fil4" d="M2090 776l-331 0 0 -31 138 -231c3,-5 3,-12 0,-18 -3,-5 -9,-9 -15,-9l-175 0c-6,0 -12,3 -15,9l-40 65 -41 -65c-3,-6 -9,-9 -15,-9l-175 0c-6,0 -12,4 -15,9 -3,6 -3,13 0,18l139 231 0 31 -332 0c-10,0 -18,8 -18,18l0 588c0,10 8,18 18,18l877 0c10,0 18,-8 18,-18l0 -588c0,-10 -8,-18 -18,-18l0 0zm-534 131l89 35c2,1 4,2 7,2 2,0 4,-1 6,-2l89 -35c7,-3 12,-10 12,-17l0 -5c20,5 35,24 35,46 0,27 -21,48 -48,48l-189 0c-27,0 -48,-21 -48,-48 0,-22 15,-41 36,-46l0 5c0,7 4,14 11,17l0 0zm24 -29l0 -120 143 0 0 120 -71 29 -72 -29zm137 -355l133 0 -109 183 -69 -111 45 -72zm-264 0l133 0 123 200 -137 0 -119 -200zm619 842l-841 0 0 -553 314 0 0 36c-41,6 -72,41 -72,83 0,46 38,84 84,84l189 0c46,0 84,-38 84,-84 0,-42 -31,-77 -71,-83l0 -36 313 0 0 553zm0 0z"/>
   <path class="fil4 str0" d="M1231 812l0 553 841 0 0 -553 -313 0 0 36c40,6 71,41 71,83 0,46 -38,84 -84,84l-189 0c-46,0 -84,-38 -84,-84 0,-42 31,-77 72,-83l0 -36 -314 0z"/>
   <g>
    <path class="fil5" d="M1652 1151l99 0c10,0 18,-8 18,-18 0,-10 -8,-18 -18,-18l-99 0c-10,0 -18,8 -18,18 0,10 8,18 18,18l0 0zm0 0z"/>
    <path class="fil5" d="M1634 1204c0,10 8,18 18,18l260 0c10,0 18,-8 18,-18 0,-10 -8,-18 -18,-18l-260 0c-10,0 -18,8 -18,18l0 0zm0 0z"/>
    <path class="fil5" d="M1866 1258c-10,0 -18,8 -18,17 0,10 8,18 18,18 9,0 17,-8 17,-18 0,-9 -8,-17 -17,-17zm0 0z"/>
    <path class="fil5" d="M1794 1258l-142 0c-10,0 -18,8 -18,17 0,10 8,18 18,18l142 0c10,0 18,-8 18,-18 0,-9 -8,-17 -18,-17l0 0zm0 0z"/>
    <path class="fil5" d="M1919 1275c0,10 8,18 18,18l46 0c10,0 18,-8 18,-18 0,-9 -8,-17 -18,-17l-46 0c-10,0 -18,8 -18,17l0 0zm0 0z"/>
    <path class="fil5" d="M1498 1063c-9,-4 -19,0 -23,9l-73 160 -73 -160c-4,-9 -15,-13 -24,-9 -9,4 -13,15 -9,24l90 196c3,6 9,10 16,10l0 0c7,0 13,-4 16,-10l89 -196c4,-9 0,-20 -9,-24l0 0zm0 0z"/>
   </g>
  </g>
 </g>
</svg>
