<svg version="1.2" baseProfile="tiny-ps" xmlns="http://www.w3.org/2000/svg" viewBox="0 0 2648 1987" width="2648" height="1987">
	<title>Layer_x0020_1</title>
	<style>
		tspan { white-space:pre }
		.shp0 { fill: #00adb5 } 
		.shp1 { fill: #121c4d } 
		.shp2 { fill: #000000 } 
		.shp3 { fill: #fefefe } 
	</style>
	<g id="Layer_x0020_1">
		<path id="Layer" class="shp0" d="M598 1638L214 1638C189 1638 168 1617 168 1592C168 1566 189 1545 214 1545L598 1545C623 1545 644 1566 644 1592C644 1617 623 1638 598 1638Z" />
		<path id="Layer" class="shp0" d="M430 1163L47 1163C21 1163 0 1142 0 1116C0 1091 21 1070 47 1070L430 1070C455 1070 476 1091 476 1116C476 1142 455 1163 430 1163Z" />
		<path id="Layer" class="shp0" d="M430 925L47 925C21 925 0 904 0 879C0 853 21 832 47 832L430 832C455 832 476 853 476 879C476 904 455 925 430 925Z" />
		<path id="Layer" class="shp0" d="M598 687L444 687C418 687 397 667 397 641C397 615 418 594 444 594L598 594C623 594 644 615 644 641C644 667 623 687 598 687Z" />
		<path id="Layer" class="shp0" d="M586 1400L433 1400C407 1400 386 1380 386 1354C386 1328 407 1307 433 1307L586 1307C612 1307 633 1328 633 1354C633 1380 612 1400 586 1400Z" />
		<path id="Layer" class="shp0" d="M598 450L214 450C189 450 168 429 168 403C168 378 189 357 214 357L598 357C623 357 644 378 644 403C644 429 623 450 598 450Z" />
		<path id="Layer" class="shp1" d="M1654 0C1519 0 1391 27 1273 76C1272 76 1270 76 1269 76C1267 77 1266 77 1264 77C1036 76 808 76 579 75C555 75 536 94 536 118L536 124C536 148 555 168 579 168L1090 168C1094 168 1096 172 1091 175C1072 188 1042 210 1009 239C984 260 955 287 925 319C917 338 919 358 931 372C947 392 979 396 1004 379C1065 315 1195 196 1397 136C1479 111 1565 98 1654 98C2149 98 2549 499 2549 993C2549 1488 2149 1888 1654 1888C1160 1888 759 1488 759 993C759 813 813 645 905 504C918 483 914 456 897 441C878 424 846 424 826 445C787 504 738 592 703 706C676 797 661 893 661 993C661 1096 677 1195 705 1288C718 1330 811 1615 1083 1806C1089 1810 1079 1815 1079 1815L572 1815C569 1815 554 1815 541 1828C534 1836 529 1847 529 1859L529 1865C529 1889 548 1908 572 1908C801 1908 1029 1908 1257 1908C1258 1908 1260 1908 1261 1908C1264 1908 1266 1909 1266 1909C1294 1921 1335 1936 1385 1950C1385 1950 1518 1987 1654 1987C2203 1987 2648 1542 2648 993C2648 445 2203 0 1654 0Z" />
		<path id="Layer" class="shp1" d="M1653 1676C1278 1676 975 1372 975 998C975 623 1278 319 1653 319C2005 319 2294 587 2328 929C2333 949 2350 964 2369 966C2391 968 2413 953 2419 929C2377 531 2041 228 1653 228C1228 228 884 573 884 998C884 1423 1228 1767 1653 1767C2047 1767 2372 1471 2417 1089C2413 1069 2398 1054 2380 1051C2357 1047 2332 1063 2325 1089C2270 1428 1981 1676 1653 1676Z" />
		<g id="_2309459311792">
			<path id="Layer" fill-rule="evenodd" class="shp0" d="M1669 812C1669 822 1661 830 1652 830C1642 830 1634 822 1634 812C1634 802 1642 794 1652 794C1661 794 1669 802 1669 812Z" />
			<path id="Layer" fill-rule="evenodd" class="shp0" d="M2090 776C2100 776 2108 784 2108 794L2108 1382C2108 1392 2100 1400 2090 1400L1213 1400C1203 1400 1195 1392 1195 1382L1195 794C1195 784 1203 776 1213 776L1545 776L1545 745L1406 514C1403 509 1403 502 1406 496C1409 491 1415 487 1421 487L1596 487C1602 487 1608 490 1611 496L1652 561L1692 496C1695 490 1701 487 1707 487L1882 487C1888 487 1894 491 1897 496C1900 502 1900 509 1897 514L1759 745L1759 776L2090 776ZM2072 812L1759 812L1759 848C1799 854 1830 889 1830 931C1830 977 1792 1015 1746 1015L1557 1015C1511 1015 1473 977 1473 931C1473 889 1504 854 1545 848L1545 812L1231 812L1231 1365L2072 1365L2072 812ZM1652 907L1723 878L1723 758L1580 758L1580 878L1652 907ZM1672 595L1741 706L1850 523L1717 523L1672 595ZM1572 723L1709 723L1586 523L1453 523L1572 723ZM1556 907C1549 904 1545 897 1545 890L1545 885C1524 890 1509 909 1509 931C1509 958 1530 979 1557 979L1746 979C1773 979 1794 958 1794 931C1794 909 1779 890 1759 885L1759 890C1759 897 1754 904 1747 907L1658 942C1656 943 1654 944 1652 944C1649 944 1647 943 1645 942L1556 907Z" />
			<path id="Layer" fill-rule="evenodd" class="shp2" d="M1231 812L1231 1365L2072 1365L2072 812L1759 812L1759 848C1799 854 1830 889 1830 931C1830 977 1792 1015 1746 1015L1557 1015C1511 1015 1473 977 1473 931C1473 889 1504 854 1545 848L1545 812L1231 812Z" />
			<g id="Layer">
				<path id="Layer" fill-rule="evenodd" class="shp3" d="M1652 1151L1751 1151C1761 1151 1769 1143 1769 1133C1769 1123 1761 1115 1751 1115L1652 1115C1642 1115 1634 1123 1634 1133C1634 1143 1642 1151 1652 1151L1652 1151Z" />
				<path id="Layer" fill-rule="evenodd" class="shp3" d="M1634 1204C1634 1214 1642 1222 1652 1222L1912 1222C1922 1222 1930 1214 1930 1204C1930 1194 1922 1186 1912 1186L1652 1186C1642 1186 1634 1194 1634 1204L1634 1204Z" />
				<path id="Layer" fill-rule="evenodd" class="shp3" d="M1866 1258C1856 1258 1848 1266 1848 1275C1848 1285 1856 1293 1866 1293C1875 1293 1883 1285 1883 1275C1883 1266 1875 1258 1866 1258Z" />
				<path id="Layer" fill-rule="evenodd" class="shp3" d="M1794 1258L1652 1258C1642 1258 1634 1266 1634 1275C1634 1285 1642 1293 1652 1293L1794 1293C1804 1293 1812 1285 1812 1275C1812 1266 1804 1258 1794 1258L1794 1258Z" />
				<path id="Layer" fill-rule="evenodd" class="shp3" d="M1919 1275C1919 1285 1927 1293 1937 1293L1983 1293C1993 1293 2001 1285 2001 1275C2001 1266 1993 1258 1983 1258L1937 1258C1927 1258 1919 1266 1919 1275L1919 1275Z" />
				<path id="Layer" fill-rule="evenodd" class="shp3" d="M1498 1063C1489 1059 1479 1063 1475 1072L1402 1232L1329 1072C1325 1063 1314 1059 1305 1063C1296 1067 1292 1078 1296 1087L1386 1283C1389 1289 1395 1293 1402 1293L1402 1293C1409 1293 1415 1289 1418 1283L1507 1087C1511 1078 1507 1067 1498 1063L1498 1063Z" />
			</g>
		</g>
	</g>
</svg>